<svg xmlns="http://www.w3.org/2000/svg" width="760" height="384" style="font-family:'Segoe UI',Arial,sans-serif;background:#1e1e2e;">
<rect width="760" height="56" fill="#13131f"/>
<text x="380" y="32" text-anchor="middle" font-size="16" font-weight="bold" fill="#cdd6f4">Tower of Omens — 개발 일지</text>
<text x="380" y="48" text-anchor="middle" font-size="11" fill="#6c7086">2026-04-12</text>
<rect x="0" y="56" width="760" height="1" fill="#313244"/>
<rect x="0" y="66" width="760" height="36" fill="#181825"/>
<rect x="20" y="74" width="52" height="18" rx="4" fill="#A0A0C0" opacity="0.85"/>
<text x="46" y="87" text-anchor="middle" font-size="10" font-weight="bold" fill="#ffffff">chore</text>
<text x="84" y="88" font-size="12" fill="#89b4fa">초기 설정</text>
<text x="174" y="88" font-size="12" fill="#cdd6f4">레포 생성, README·gitignore·MIT License 추가</text>
<text x="740" y="88" text-anchor="end" font-size="10" fill="#6c7086">2026-04-12</text>
<rect x="20" y="101" width="720" height="1" fill="#313244" opacity="0.5"/>
<rect x="0" y="102" width="760" height="36" fill="#1e1e2e"/>
<rect x="20" y="110" width="52" height="18" rx="4" fill="#A0A0C0" opacity="0.85"/>
<text x="46" y="123" text-anchor="middle" font-size="10" font-weight="bold" fill="#ffffff">chore</text>
<text x="84" y="124" font-size="12" fill="#89b4fa">초기 설정</text>
<text x="174" y="124" font-size="12" fill="#cdd6f4">플로우차트(draw.io) 및 솔루션 파일(.slnx) 추가</text>
<text x="740" y="124" text-anchor="end" font-size="10" fill="#6c7086">2026-04-12</text>
<rect x="20" y="137" width="720" height="1" fill="#313244" opacity="0.5"/>
<rect x="0" y="138" width="760" height="36" fill="#181825"/>
<rect x="20" y="146" width="52" height="18" rx="4" fill="#A0A0C0" opacity="0.85"/>
<text x="46" y="159" text-anchor="middle" font-size="10" font-weight="bold" fill="#ffffff">chore</text>
<text x="84" y="160" font-size="12" fill="#89b4fa">자동화</text>
<text x="174" y="160" font-size="12" fill="#cdd6f4">GitHub Actions 워크플로 및 update_gantt.py 추가</text>
<text x="740" y="160" text-anchor="end" font-size="10" fill="#6c7086">2026-04-12</text>
<rect x="20" y="173" width="720" height="1" fill="#313244" opacity="0.5"/>
<rect x="0" y="174" width="760" height="36" fill="#1e1e2e"/>
<rect x="20" y="182" width="52" height="18" rx="4" fill="#4A90D9" opacity="0.85"/>
<text x="46" y="195" text-anchor="middle" font-size="10" font-weight="bold" fill="#ffffff">feat</text>
<text x="84" y="196" font-size="12" fill="#89b4fa">엔진</text>
<text x="174" y="196" font-size="12" fill="#cdd6f4">ConsoleRenderer, MenuInput 구현</text>
<text x="740" y="196" text-anchor="end" font-size="10" fill="#6c7086">2026-04-12</text>
<rect x="20" y="209" width="720" height="1" fill="#313244" opacity="0.5"/>
<rect x="0" y="210" width="760" height="36" fill="#181825"/>
<rect x="20" y="218" width="52" height="18" rx="4" fill="#4A90D9" opacity="0.85"/>
<text x="46" y="231" text-anchor="middle" font-size="10" font-weight="bold" fill="#ffffff">feat</text>
<text x="84" y="232" font-size="12" fill="#89b4fa">게임</text>
<text x="174" y="232" font-size="12" fill="#cdd6f4">Game, Screen 클래스 초기 구현</text>
<text x="740" y="232" text-anchor="end" font-size="10" fill="#6c7086">2026-04-12</text>
<rect x="20" y="245" width="720" height="1" fill="#313244" opacity="0.5"/>
<rect x="0" y="246" width="760" height="36" fill="#1e1e2e"/>
<rect x="20" y="254" width="52" height="18" rx="4" fill="#E05C5C" opacity="0.85"/>
<text x="46" y="267" text-anchor="middle" font-size="10" font-weight="bold" fill="#ffffff">fix</text>
<text x="84" y="268" font-size="12" fill="#89b4fa">구조</text>
<text x="174" y="268" font-size="12" fill="#cdd6f4">engine/platform, game/screens 레이어 분리</text>
<text x="740" y="268" text-anchor="end" font-size="10" fill="#6c7086">2026-04-12</text>
<rect x="20" y="281" width="720" height="1" fill="#313244" opacity="0.5"/>
<rect x="0" y="282" width="760" height="36" fill="#181825"/>
<rect x="20" y="290" width="52" height="18" rx="4" fill="#E05C5C" opacity="0.85"/>
<text x="46" y="303" text-anchor="middle" font-size="10" font-weight="bold" fill="#ffffff">fix</text>
<text x="84" y="304" font-size="12" fill="#89b4fa">게임</text>
<text x="174" y="304" font-size="12" fill="#cdd6f4">Game.cpp에서 Screen 클래스 분리</text>
<text x="740" y="304" text-anchor="end" font-size="10" fill="#6c7086">2026-04-12</text>
<rect x="20" y="317" width="720" height="1" fill="#313244" opacity="0.5"/>
<rect x="0" y="318" width="760" height="36" fill="#1e1e2e"/>
<rect x="20" y="326" width="52" height="18" rx="4" fill="#E05C5C" opacity="0.85"/>
<text x="46" y="339" text-anchor="middle" font-size="10" font-weight="bold" fill="#ffffff">fix</text>
<text x="84" y="340" font-size="12" fill="#89b4fa">전체</text>
<text x="174" y="340" font-size="12" fill="#cdd6f4">코드 리팩토링 (MenuInput, FloorLoopScreen 등)</text>
<text x="740" y="340" text-anchor="end" font-size="10" fill="#6c7086">2026-04-12</text>
<rect x="20" y="353" width="720" height="1" fill="#313244" opacity="0.5"/>
</svg>
